<svg width="1063" height="215" viewBox="0 0 1063 215" fill="none" xmlns="http://www.w3.org/2000/svg">
<path d="M895.281 214.893V1.89307H926.642L1031.52 160.164V1.89307H1062.89V214.893H1031.52L926.642 56.4743V214.893H895.281Z" fill="#232329"/>
<path d="M723.658 214.893V1.89307H859.754V31.0327H754.576V90.791H842.003V119.931H754.576V185.753H859.754V214.893H723.658Z" fill="#232329"/>
<path d="M648.318 214.893V1.89307H679.235V214.893H648.318Z" fill="#232329"/>
<path d="M393.703 214.893V1.89307H421.662L498.882 162.087L575.658 1.89307H603.913V214.745H574.622V69.0472L505.835 214.893H491.781L422.845 69.0472V214.893H393.703Z" fill="#232329"/>
<path d="M184.174 214.893L253.405 1.89307H297.932L367.164 214.893H335.063L271.305 20.5306H279.293L216.275 214.893H184.174ZM220.121 166.82V137.828H331.365V166.82H220.121Z" fill="#232329"/>
<path d="M0.473633 214.893V1.89307H67.1904C69.1628 1.89307 72.8117 1.94237 78.1372 2.04099C83.5613 2.13959 88.7389 2.53403 93.6699 3.22431C110.337 5.29514 124.341 11.2611 135.682 21.1222C147.122 30.9833 155.752 43.507 161.57 58.6931C167.389 73.7806 170.298 90.3472 170.298 108.393C170.298 126.538 167.389 143.203 161.57 158.389C155.752 173.476 147.122 185.951 135.682 195.812C124.341 205.574 110.337 211.491 93.6699 213.562C88.7389 214.252 83.5613 214.647 78.1372 214.745C72.8117 214.844 69.1628 214.893 67.1904 214.893H0.473633ZM32.1308 185.458H67.1904C70.5434 185.458 74.5376 185.359 79.1727 185.162C83.8079 184.965 87.9007 184.57 91.451 183.978C102.299 181.908 111.076 177.224 117.783 169.926C124.587 162.531 129.568 153.458 132.724 142.71C135.88 131.961 137.457 120.522 137.457 108.393C137.457 95.8695 135.83 84.2826 132.576 73.6327C129.321 62.884 124.292 53.9104 117.487 46.7118C110.781 39.4146 102.102 34.7799 91.451 32.8076C87.9007 32.1174 83.7586 31.7229 79.0248 31.6243C74.3896 31.4271 70.4448 31.3285 67.1904 31.3285H32.1308V185.458Z" fill="#232329"/>
</svg>
